<svg width="72" height="72" viewBox="0 0 72 72" fill="none" xmlns="http://www.w3.org/2000/svg">
    <rect width="72" height="72" rx="36" fill="#F9FAFB" />
    <path fill-rule="evenodd" clip-rule="evenodd"
        d="M32.6105 32.1806C32.0988 30.0729 29.1013 30.0729 28.5896 32.1806C28.2591 33.5421 26.6992 34.1883 25.5027 33.4592C23.6505 32.3307 21.5309 34.4502 22.6595 36.3024C23.3885 37.4989 22.7424 39.0588 21.3808 39.3894C19.2731 39.901 19.2731 42.8986 21.3808 43.4103C22.7424 43.7408 23.3885 45.3007 22.6595 46.4972C21.5309 48.3494 23.6505 50.4689 25.5027 49.3404C26.6992 48.6114 28.2591 49.2575 28.5896 50.619C29.1013 52.7267 32.0988 52.7267 32.6105 50.619C32.941 49.2575 34.501 48.6114 35.6974 49.3404C37.5496 50.4689 39.6692 48.3494 38.5406 46.4972C37.8116 45.3007 38.4577 43.7408 39.8193 43.4103C41.927 42.8986 41.927 39.901 39.8193 39.3894C38.4577 39.0588 37.8116 37.4989 38.5406 36.3024C39.6692 34.4502 37.5496 32.3307 35.6974 33.4592C34.501 34.1883 32.941 33.5421 32.6105 32.1806ZM30.6001 45.4498C32.8368 45.4498 34.6501 43.6366 34.6501 41.3998C34.6501 39.1631 32.8368 37.3498 30.6001 37.3498C28.3633 37.3498 26.5501 39.1631 26.5501 41.3998C26.5501 43.6366 28.3633 45.4498 30.6001 45.4498Z"
        fill="#4B5563" />
    <path fill-rule="evenodd" clip-rule="evenodd"
        d="M48.6022 21.6031C48.8517 19.9871 46.7628 19.1251 45.8001 20.4468C45.1782 21.3006 43.9053 21.3024 43.2811 20.4502C42.3149 19.1311 40.2282 19.9988 40.4821 21.6141C40.6461 22.6575 39.7472 23.5588 38.7033 23.3976C37.0874 23.1481 36.2254 25.2371 37.5471 26.1998C38.4009 26.8217 38.4026 28.0946 37.5505 28.7188C36.2314 29.685 37.099 31.7716 38.7143 31.5178C39.7578 31.3538 40.6591 32.2526 40.4979 33.2965C40.2484 34.9125 42.3374 35.7745 43.3001 34.4528C43.9219 33.599 45.1948 33.5972 45.819 34.4494C46.7853 35.7685 48.8719 34.9008 48.618 33.2855C48.454 32.2421 49.3529 31.3408 50.3968 31.502C52.0128 31.7515 52.8747 29.6625 51.553 28.6998C50.6992 28.0779 50.6975 26.805 51.5496 26.1809C52.8687 25.2146 52.0011 23.128 50.3858 23.3819C49.3423 23.5458 48.441 22.647 48.6022 21.6031ZM43.3854 30.2722C44.9442 30.9154 46.7293 30.1732 47.3725 28.6144C48.0157 27.0556 47.2735 25.2706 45.7147 24.6274C44.1559 23.9842 42.3708 24.7264 41.7276 26.2852C41.0844 27.844 41.8267 29.629 43.3854 30.2722Z"
        fill="#4B5563" />
</svg>